HIERARCHY
ROOT Hips
{
	OFFSET -14.64140 90.27770 -84.91600
	CHANNELS 6 Xposition Yposition Zposition Zrotation Xrotation Yrotation
	JOINT Spine
	{
		OFFSET 0.00000 13.20850 -1.60436
		CHANNELS 3 Zrotation Xrotation Yrotation
		JOINT Spine1
		{
			OFFSET 0.00000 8.61716 0.00000
			CHANNELS 3 Zrotation Xrotation Yrotation
			JOINT Spine2
			{
				OFFSET 0.00000 8.61717 0.00000
				CHANNELS 3 Zrotation Xrotation Yrotation
				JOINT Spine3
				{
					OFFSET 0.00000 8.61717 0.00000
					CHANNELS 3 Zrotation Xrotation Yrotation
					JOINT Neck
					{
						OFFSET 0.00000 11.07920 1.10792
						CHANNELS 3 Zrotation Xrotation Yrotation
						JOINT Neck1
						{
							OFFSET 0.00000 7.08032 0.00000
							CHANNELS 3 Zrotation Xrotation Yrotation
							JOINT Head
							{
								OFFSET 0.00000 7.08031 0.00000
								CHANNELS 3 Zrotation Xrotation Yrotation
								End site
								{
									OFFSET 0.00000 0.00000 0.00000
								}
							}
						}
					}
					JOINT RightShoulder
					{
						OFFSET -0.01000 7.91373 5.19711
						CHANNELS 3 Zrotation Xrotation Yrotation
						JOINT RightArm
						{
							OFFSET -18.41580 0.00000 0.00000
							CHANNELS 3 Zrotation Xrotation Yrotation
							JOINT RightForeArm
							{
								OFFSET -29.11090 0.00000 0.00000
								CHANNELS 3 Zrotation Xrotation Yrotation
								JOINT RightHand
								{
									OFFSET -24.65040 0.00000 0.00000
									CHANNELS 3 Zrotation Xrotation Yrotation
									JOINT RightHandThumb1
									{
										OFFSET -5.35114 -0.85590 3.97906
										CHANNELS 3 Zrotation Xrotation Yrotation
										JOINT RightHandThumb2
										{
											OFFSET -4.52789 0.00000 0.00000
											CHANNELS 3 Zrotation Xrotation Yrotation
											JOINT RightHandThumb3
											{
												OFFSET -2.46976 0.00000 0.00000
												CHANNELS 3 Zrotation Xrotation Yrotation
												End site
												{
													OFFSET 0.00000 0.00000 0.00000
												}
											}
										}
									}
									JOINT RightHandIndex1
									{
										OFFSET -14.26970 0.00000 2.88139
										CHANNELS 3 Zrotation Xrotation Yrotation
										JOINT RightHandIndex2
										{
											OFFSET -5.48836 0.00000 0.00000
											CHANNELS 3 Zrotation Xrotation Yrotation
											JOINT RightHandIndex3
											{
												OFFSET -3.01859 0.00000 0.00000
												CHANNELS 3 Zrotation Xrotation Yrotation
												End site
												{
													OFFSET 0.00000 0.00000 0.00000
												}
											}
										}
									}
									JOINT RightHandMiddle1
									{
										OFFSET -14.26970 0.00000 -0.09147
										CHANNELS 3 Zrotation Xrotation Yrotation
										JOINT RightHandMiddle2
										{
											OFFSET -6.17441 0.00000 0.00000
											CHANNELS 3 Zrotation Xrotation Yrotation
											JOINT RightHandMiddle3
											{
												OFFSET -3.56743 0.00000 0.00000
												CHANNELS 3 Zrotation Xrotation Yrotation
												End site
												{
													OFFSET 0.00000 0.00000 0.00000
												}
											}
										}
									}
									JOINT RightHandRing1
									{
										OFFSET -12.69180 0.00000 -3.06433
										CHANNELS 3 Zrotation Xrotation Yrotation
										JOINT RightHandRing2
										{
											OFFSET -5.62556 0.00000 0.00000
											CHANNELS 3 Zrotation Xrotation Yrotation
											JOINT RightHandRing3
											{
												OFFSET -3.56744 0.00000 0.00000
												CHANNELS 3 Zrotation Xrotation Yrotation
												End site
												{
													OFFSET 0.00000 0.00000 0.00000
												}
											}
										}
									}
									JOINT RightHandPinky1
									{
										OFFSET -11.11390 0.00000 -6.03719
										CHANNELS 3 Zrotation Xrotation Yrotation
										JOINT RightHandPinky2
										{
											OFFSET -4.52789 0.00000 0.00000
											CHANNELS 3 Zrotation Xrotation Yrotation
											JOINT RightHandPinky3
											{
												OFFSET -2.46976 0.00000 0.00000
												CHANNELS 3 Zrotation Xrotation Yrotation
												End site
												{
													OFFSET 0.00000 0.00000 0.00000
												}
											}
										}
									}
								}
							}
						}
					}
					JOINT LeftShoulder
					{
						OFFSET 0.01000 7.91373 5.19711
						CHANNELS 3 Zrotation Xrotation Yrotation
						JOINT LeftArm
						{
							OFFSET 18.41580 0.00000 0.00000
							CHANNELS 3 Zrotation Xrotation Yrotation
							JOINT LeftForeArm
							{
								OFFSET 29.11090 0.00000 0.00000
								CHANNELS 3 Zrotation Xrotation Yrotation
								JOINT LeftHand
								{
									OFFSET 24.65040 0.00000 0.00000
									CHANNELS 3 Zrotation Xrotation Yrotation
									JOINT LeftHandThumb1
									{
										OFFSET 5.35114 -0.85590 3.97906
										CHANNELS 3 Zrotation Xrotation Yrotation
										JOINT LeftHandThumb2
										{
											OFFSET 4.52789 0.00000 0.00000
											CHANNELS 3 Zrotation Xrotation Yrotation
											JOINT LeftHandThumb3
											{
												OFFSET 2.46977 0.00000 0.00000
												CHANNELS 3 Zrotation Xrotation Yrotation
												End site
												{
													OFFSET 0.00000 0.00000 0.00000
												}
											}
										}
									}
									JOINT LeftHandIndex1
									{
										OFFSET 14.26970 0.00000 2.88139
										CHANNELS 3 Zrotation Xrotation Yrotation
										JOINT LeftHandIndex2
										{
											OFFSET 5.48836 0.00000 0.00000
											CHANNELS 3 Zrotation Xrotation Yrotation
											JOINT LeftHandIndex3
											{
												OFFSET 3.01859 0.00000 0.00000
												CHANNELS 3 Zrotation Xrotation Yrotation
												End site
												{
													OFFSET 0.00000 0.00000 0.00000
												}
											}
										}
									}
									JOINT LeftHandMiddle1
									{
										OFFSET 14.26970 0.00000 -0.09147
										CHANNELS 3 Zrotation Xrotation Yrotation
										JOINT LeftHandMiddle2
										{
											OFFSET 6.17440 0.00000 0.00000
											CHANNELS 3 Zrotation Xrotation Yrotation
											JOINT LeftHandMiddle3
											{
												OFFSET 3.56744 0.00000 0.00000
												CHANNELS 3 Zrotation Xrotation Yrotation
												End site
												{
													OFFSET 0.00000 0.00000 0.00000
												}
											}
										}
									}
									JOINT LeftHandRing1
									{
										OFFSET 12.69180 0.00000 -3.06433
										CHANNELS 3 Zrotation Xrotation Yrotation
										JOINT LeftHandRing2
										{
											OFFSET 5.62556 0.00000 0.00000
											CHANNELS 3 Zrotation Xrotation Yrotation
											JOINT LeftHandRing3
											{
												OFFSET 3.56744 0.00000 0.00000
												CHANNELS 3 Zrotation Xrotation Yrotation
												End site
												{
													OFFSET 0.00000 0.00000 0.00000
												}
											}
										}
									}
									JOINT LeftHandPinky1
									{
										OFFSET 11.11390 0.00000 -6.03719
										CHANNELS 3 Zrotation Xrotation Yrotation
										JOINT LeftHandPinky2
										{
											OFFSET 4.52789 0.00000 0.00000
											CHANNELS 3 Zrotation Xrotation Yrotation
											JOINT LeftHandPinky3
											{
												OFFSET 2.46976 0.00000 0.00000
												CHANNELS 3 Zrotation Xrotation Yrotation
												End site
												{
													OFFSET 0.00000 0.00000 0.00000
												}
											}
										}
									}
								}
							}
						}
					}
					JOINT pCube4
					{
						OFFSET 0.00000 10.91090 1.10792
						CHANNELS 3 Zrotation Xrotation Yrotation
						End site
						{
							OFFSET 0.00000 0.00000 0.00000
						}
					}
				}
			}
		}
	}
	JOINT RightUpLeg
	{
		OFFSET -9.98441 0.00000 0.00000
		CHANNELS 3 Zrotation Xrotation Yrotation
		JOINT RightLeg
		{
			OFFSET 0.00000 -42.11790 0.00000
			CHANNELS 3 Zrotation Xrotation Yrotation
			JOINT RightFoot
			{
				OFFSET 0.00000 -45.00020 -0.00001
				CHANNELS 3 Zrotation Xrotation Yrotation
				JOINT RightForeFoot
				{
					OFFSET 0.00000 -3.74820 0.00000
					CHANNELS 3 Zrotation Xrotation Yrotation
					JOINT RightToeBase
					{
						OFFSET 0.00000 0.06325 14.43120
						CHANNELS 3 Zrotation Xrotation Yrotation
						End site
						{
							OFFSET 0.00000 0.00000 0.00000
						}
					}
				}
			}
		}
	}
	JOINT LeftUpLeg
	{
		OFFSET 9.98441 0.00000 0.00000
		CHANNELS 3 Zrotation Xrotation Yrotation
		JOINT LeftLeg
		{
			OFFSET 0.00000 -42.11800 0.00000
			CHANNELS 3 Zrotation Xrotation Yrotation
			JOINT LeftFoot
			{
				OFFSET 0.00000 -45.00070 0.00000
				CHANNELS 3 Zrotation Xrotation Yrotation
				JOINT LeftForeFoot
				{
					OFFSET 0.00000 -3.74824 0.00000
					CHANNELS 3 Zrotation Xrotation Yrotation
					JOINT LeftToeBase
					{
						OFFSET 0.00000 0.06325 14.43110
						CHANNELS 3 Zrotation Xrotation Yrotation
						End site
						{
							OFFSET 0.00000 0.00000 0.00000
						}
					}
				}
			}
		}
	}
}
MOTION
Frames: 4
Frame Time: 0.050000
0.03826896123435014 -0.028359464818324173 -0.04198247033092118 0.009330899939615524 -0.02769684148847079 -0.029422889463793473 -2.432426012959916 -0.1511675875759225 -0.8969538859119 -0.9960291429705281 3.7058616295295645 0.32111980761888864 -1.3536520974954904 -2.159708185350142 -1.300686439192141 0.8727651941215497 0.13151806787881365 -0.872636147424368 1.1783180660822905 14.631079167322856 -3.530656283825617 0.3971982360182958 1.2811170419012325 -9.401961075574372 1.6065690588517292 -13.15144899409899 -0.7732770101674611 -7.479544683508591 2.3104024607537172 -15.666552357890128 68.33068984021291 -2.0603939129519335 13.237248392127727 22.502601884479446 3.059252515739693 98.37945331738464 11.021256479998069 -0.30938714058445516 -1.957913127090671 4.546011472783182 -0.0922670099548679 -1.582707349247933 -0.015849618458996042 -0.009948319783996813 -56.24522096831171 -0.010849848640651435 0.009435295353656656 -56.2781597816263 -38.73247015764933 -0.005425574354185014 0.0008031126023786474 -0.03854195105129847 -0.042076590678770676 -0.0031911995404767194 0.009827489083213516 -0.02057778980371208 -0.0049998392440539115 -36.64624654768447 0.009392416272591724 -0.041299884918797006 -0.04047737378842952 0.03636536019434625 -0.045810506246753535 -0.02070110060690831 -0.035510950223527425 0.0006949488733059554 -19.785085076214134 0.02183989482250141 -0.039282405470715265 0.006379356661569494 -0.03031939990343951 0.013204892285988269 0.039439924566931 0.04634680053040713 0.02121819540999347 24.02714361605243 0.002969877769028398 -0.018466003788669572 28.88748195167482 0.024025566168684554 -0.03905871213891079 28.9052201442464 -0.03027503443686119 0.011158025511974713 7.24098985764398 1.741978007393957 13.224844418207578 -68.40239764506515 15.094098784600735 -12.574459189106419 -22.51204089487123 1.9023979444910064 -100.63073111710915 -1.9095094744990129 -1.7580697537335375 -1.8202134006873658 -0.5013733177994056 0.04747558660381693 -8.118201992313333 -0.03920357441198567 -0.0014532145060477562 44.53544808803545 -0.0048879423938446975 0.029091589484199005 44.599827358004404 12.501106713945758 0.04553590179804799 0.03995771750395692 -0.0034152704834401544 0.014702027106565355 0.036791945551088855 0.025175324492756692 0.03648621642178463 -0.0007681982675449414 11.08326554342579 -0.01641329940257881 0.00047288581275954276 -0.0348028833606924 -0.0017632952955905098 -0.04270633929032248 0.0022891840711333723 0.025187084871628525 -0.016969579122030058 4.75634312489381 0.006274624079312544 -0.011500667553025064 -0.00434813165889879 0.0014982568908396964 -0.011671020322180573 0.04569733840346271 0.02821041590975799 0.014991569755321836 -5.626390375782109 0.043652055852409714 -0.023736172580683057 -6.7687497566428645 0.028582782813815898 -0.03245861325286455 -6.684604764806154 0.0049612730299059835 0.0019206772976389304 0.02117531534711132 0.01399285738425176 0.0361893285058127 8.077070667184996 3.538850262359029 -19.233043108456638 -0.008581318640706046 10.405774824141712 -0.008842017488039252 -5.595512785041706 -15.630082390139481 3.148365470893707 -0.0035672951359143183 0.03870206150153667 -0.012482711694702234 0.007244571729286755 4.684423800652442 -0.03599360005910061 12.471655698793418 -8.19156018573075 6.861820203333215 -0.04911391524604963 46.38608743300385 -0.01508671157110613 -4.351128470350586 -14.724698380594772 -3.8503552818259417 -0.018470849659974833 -0.029300132458463392 0.024061804859647037 -0.01053587467678087 -10.732249850997615 -0.0007616057892078108 
0.03262987798388779 -0.023671076001567565 0.014712742913444763 -0.043776759011496136 0.03907794739183781 -0.025443307608497556 -2.539086060126174 -0.11807615163239397 -0.8886325951600738 -0.9352779870318414 3.7365094767524507 0.3449832368811141 -1.3584080445941342 -2.1876620704662897 -1.2800929731306048 0.7734571129976604 0.15752803163022283 -0.8611274421217199 1.2209612746458274 14.743683675643268 -3.4286754940081465 0.3924296914865751 1.3646094336363201 -9.037997199407396 1.5296711896176713 -12.890087672012877 -0.7036030773311709 -7.523966036026984 2.3761638383222334 -15.508251628777135 67.89640783368603 -2.336008014929564 15.209489776640995 21.919686523257138 2.9439302775728255 98.09296571974392 11.55411962581927 -0.3984307109237649 -2.2362695201430483 4.526500893281692 -0.1042440739362151 -1.5525864888426508 0.005593396985753112 0.012302390020254066 -56.267939342376614 -0.03694961512179967 -0.03482303853422578 -56.2250714112678 -38.79722379682276 -0.014822369300143004 -0.014416624498158273 -0.045811928624435 -0.010551390765492325 0.02352608724686644 0.021319239360839938 -0.010656263920733213 0.040312718448862264 -36.71231505972844 0.0016915215599384785 0.0171779632938337 -0.008946177364796125 -0.04596084784753316 -0.04448092668463033 -0.015004739143865024 0.047968072443448306 -0.004074159965232994 -19.71409753007031 0.006027202872666762 0.024896375397943638 -0.006135428504115727 -0.02210320583729721 -0.010206500656102466 0.04948879315879582 0.040666504515880574 -0.021137289694247705 24.08378897886862 0.01613100766280584 -0.04450609398694859 28.82282305527584 0.0043291650487362054 0.002554153586517456 28.872650287248028 -0.028626239857358418 0.018539126960798423 7.301339881417014 1.8285898940406544 12.99694822003439 -68.02465670972462 15.716247755980799 -13.718120136484638 -21.41416509715941 1.3507004626428474 -99.89770093648802 -2.5816757840601667 -1.8814076234300476 -1.4344201616120655 -0.43559840626218194 0.040291624170140025 -8.172849538250421 0.047292634922886045 0.005250917522029622 44.57422106491711 0.009289639610097156 0.015456710289246653 44.569011960798846 12.4963291810845 -0.03520352956753346 -0.005839231063391406 -0.0036637827523127147 -0.046395994352897804 -0.019856485086079716 0.020132140989476056 -0.01604878857196927 0.02949805546494412 11.066839538568127 -0.004491474221365994 -0.04967995867685788 -0.003871245676930385 -0.032245169295167415 -0.0051042308865469595 -0.03521294406541672 -0.0053238212512542234 0.04505129163610482 4.73740882362455 0.03675247195865844 0.026103184619479063 -5.332811570640033e-05 0.014089304055521357 -0.03244960518003746 0.017011046237083462 -0.03964340089268985 0.027240156365291538 -5.646466788850098 0.03621708677708866 -5.63180503275662e-06 -6.695987338982164 -0.04959196650434864 0.001230151535615775 -6.74677023800874 0.013996018537781615 0.0187769771312098 0.006999421931748037 0.017143202788992423 0.03649732074005622 8.079485841275119 3.4875989390183877 -19.206242892453822 0.015671086409938955 10.394168603613053 -0.005247422913646615 -5.627952713793376 -15.691003760756368 3.2070644553346845 0.04398167391968729 -0.032675594386738206 -0.014753812382465818 0.006067301172720685 4.730004109388122 -0.0008076023129268542 12.420096472174444 -8.225860911102822 6.93281204469393 -0.023893837791809598 46.41109192038612 0.007634148378426114 -4.341925125390072 -14.725852722173014 -3.7958218708040894 -0.020324921042341976 0.018788590012626963 0.004822014896896251 0.04676985257605614 -10.79020334169215 -0.02473641832990659 
-0.002948862473455745 -0.015012907387336384 0.015497613572920297 -0.023172824689585085 0.013518737271053436 -0.009761141547649763 -2.6005563004260552 -0.18569388623050165 -0.7941917372909532 -0.9562559417532044 3.6549191071794533 0.3300566791018328 -1.3537181310512187 -2.1832166269095836 -1.2152527382256608 0.6647297949673175 0.13427105149401347 -0.8288440048511139 1.1787210969867998 14.814637158302787 -3.2397355782939044 0.41710457721046157 1.4438966079865114 -8.522877395753536 1.5549522518105934 -12.675813148602847 -0.6138767852967673 -7.654988743735537 2.4495345860743334 -15.24517171074186 67.97462436286922 -1.8162695403982858 17.055590718158218 21.40248747423951 3.0234225424573937 97.68898421488672 12.257745427536273 -0.36069182677030787 -2.5276928541966472 4.509140957377084 -0.11922704662896072 -1.6392089086138342 0.025624711780449207 0.009724148982779627 -56.22083587690639 0.029754901693814083 -0.04044394674900985 -56.228663343701726 -38.795036916954295 0.035113723113038904 0.023820201545323636 0.02860916331084861 0.019876514447706006 0.01747562133731948 0.02529020232533333 -0.0056549033615648486 0.03108971627419188 -36.736540698056864 0.003599573794557576 0.04622962643406791 0.023554334886336892 -0.04253743449715292 -0.02477655242588565 0.024144204460535314 0.026872519576772617 0.020309335187052593 -19.738539714436676 -0.006195558621247627 0.011868024896536001 0.04265594573362762 -0.005394626451940932 -0.02964340052996287 -0.0062139647151622365 0.025866285555273053 0.028481323413579136 24.052122124076437 -0.03674411455513443 -0.005295912374787593 28.89892169369029 0.03094327577234155 -0.010673467615821584 28.82977545079774 -0.01234118911263079 -0.023803074371651054 7.4363830321257325 1.7793551879236131 12.89536707138793 -67.94609503913193 16.245804405932137 -14.817923786977259 -21.53760792377194 1.5267833731828826 -99.42321064408489 -3.440122992134711 -2.1582176193111797 -1.1051501448526893 -0.5019750686436988 0.047935107847480965 -8.156951601384488 0.020129382646606443 -0.043862907932939454 44.61603598017377 -0.02111980818776193 -0.016468502203800948 44.5756455193266 12.464530497465624 -0.01611176292217022 -0.014848099035769079 -0.01812508707391566 -0.004434622644580211 -0.009510647006394857 0.04583925313102812 0.032284604896839306 -0.030871249156273057 11.1076202665241 0.0217579154854502 0.014749681397713038 0.012676575117676562 -0.000584087819043788 0.022095341485097827 0.02987267038170556 0.043878659182484396 0.0446961060663856 4.768628179961526 0.008483726027899935 -0.02904212935185086 0.02429013675310387 -0.021487499342871738 0.03741886899822654 0.026880338714341978 0.027543646570209756 -0.04022451655471691 -5.637880102011615 0.012997593616719144 0.021841257283534515 -6.740976185459828 -0.01764151830070706 -0.013669895990872765 -6.7555831840494704 -0.02511423969097315 -0.03179579032605077 -0.005005936401526797 -0.035482188881505956 0.020005823665511378 8.06834951752351 3.5368096594085543 -19.229508887087935 0.010166109006557273 10.376088782137106 0.033616222962456505 -5.623850659544349 -15.613060939703738 3.231827014621959 0.001573539451978553 -0.004306842292587026 -0.005674831161728683 0.0010780748522020347 4.7091576738848655 -0.0005920747235670389 12.432264083237284 -8.249433198521714 6.870099778716434 0.034091729529456764 46.42269204494871 -0.041259069413106766 -4.36271177521882 -14.74422363494988 -3.843426184126482 -0.02285947497189206 -0.027258937508254675 0.04505812879433977 0.025273795682212722 -10.714249937808704 -0.006824861304504912 
-0.0265844442865197 0.007929488130586205 0.0012846338042274458 0.016827687492008907 0.03269212529772408 0.048931184562904684 -2.7012499176080755 -0.24874654962171283 -0.869753245771713 -0.9205957795159757 3.676093295686617 0.3788072367483717 -1.3759009901567647 -2.2861696595573 -1.1756107003981533 0.5317703270962632 0.13803464453063388 -0.8397637884793793 1.124806948349765 14.919317591339892 -2.9194560524216344 0.43317583929715564 1.6460410109718393 -7.8965518248798015 1.4005278829687544 -12.471259089106173 -0.5986867200482636 -7.759172917466456 2.472643414127504 -14.966111638930599 68.52272118125576 -1.0361768493789574 18.605979845240853 21.706193466181777 3.284952872067226 97.15896551796911 12.958057891525652 -0.44305399699140763 -2.7695343082524575 4.543491401426252 -0.15582004900446467 -1.6359103773790604 0.043575618991370996 0.042361108790761985 -56.214303707710506 -0.04109050636557495 0.0026623953438575814 -56.274602506040225 -38.770423683214595 0.008757063830262271 -0.020805529137709933 0.03740984155091218 -0.01652081102346521 -0.014478824136080695 0.0035964661356808697 0.034312050706843115 -0.04927538541350382 -36.655954559594264 0.03203779726764824 -0.04762639056114283 0.042819989994292235 0.0006477112959137947 -0.033923704641989454 0.03811412203805801 -0.014147901154292304 -0.01823785100004977 -19.75669974329848 -0.0198819797651614 0.03265339502169587 -0.025941696120964534 -0.008201673235057154 -0.01731680919787633 -0.037303251641853594 -0.047571903329575935 0.006427026874642543 24.02772740520577 0.009308533769227566 0.04003445742237871 28.913216808263137 -0.01846276814361468 0.038579384765686106 28.830739824093286 -0.00727692540678966 0.0006624472827035468 7.706343481497187 1.8597100604103314 12.797103306698965 -68.07900005888962 16.17184142048997 -16.2813278374204 -23.10551615365792 2.3399095445780373 -99.22137085040674 -4.203582034269155 -2.3418966077251793 -0.8398420418629607 -0.4912274342187825 0.05274127560524314 -8.168115546885733 0.04155898857486129 -0.03918892583624803 44.562743404233146 0.0030203223832507534 0.04280626027632816 44.6027019781361 12.428949873269405 0.033292462272796995 -0.022682625311746186 -0.02169635853393328 0.0011956425427419165 -0.04473559453005266 -0.03067417681743276 -0.03879340203749017 0.013947267071282845 11.077351015660035 -0.031006384922442953 -0.026875192488313635 -0.014773188230644373 0.01140819991569737 -0.018614917730779806 -0.030729226135976492 0.03998380514595865 -0.018970588743413393 4.7495620547788455 -0.0017840454514350638 0.03592167591115697 -0.0016473066709731797 -0.030278305347288516 -0.03190966923705894 0.0037636567879021647 -0.02007679025787317 -0.00938452779801763 -5.606353869826026 -0.02410851806044166 0.03332357840765774 -6.7262687838949695 0.020995652729178856 0.03948114182054892 -6.688840422501152 0.004177228358034111 0.0024435564655211476 -0.03169533438861479 -0.032174561321013075 0.03396842910788655 8.053320459660108 3.5096835941443945 -19.177253091359855 0.011462037827169771 10.40587551765054 0.00015735632734895436 -5.6033103128765 -15.695647152307554 3.1704699023221155 0.0006407540820930485 -0.04528927014468246 -0.013775997432466271 0.04911128791075297 4.701361927639635 0.02131554365648188 12.447985230513382 -8.231451085388262 6.888327535522242 -0.018346621799828815 46.363368194786794 -0.008994273338581701 -4.334169902760929 -14.782199070219935 -3.817299105843714 -0.016130093841205506 0.02859270075161871 -0.014386974567824068 -0.03784330647806243 -10.709702609539704 0.02349237517028073 
